<?xml version="1.0" encoding="iso-8859-1"?>
<!-- Uploaded to: SVG Repo, www.svgrepo.com, Generator: SVG Repo Mixer Tools -->
<svg fill="#000000" height="800px" width="800px" version="1.1" id="Layer_1" xmlns="http://www.w3.org/2000/svg" xmlns:xlink="http://www.w3.org/1999/xlink" 
	 viewBox="0 0 512 512" xml:space="preserve">
<g>
	<g>
		<g>
			<path d="M354.039,194.611c-5.76-3.2-11.793-6.127-17.929-8.687c-4.344-1.801-9.344,0.23-11.162,4.582
				c-1.818,4.344,0.23,9.344,4.582,11.162c5.547,2.321,11.008,4.966,16.239,7.868c1.306,0.725,2.722,1.067,4.13,1.067
				c2.995,0,5.905-1.579,7.467-4.395C359.654,202.086,358.17,196.898,354.039,194.611z"/>
			<path d="M494.669,393.907c-2.27-41.737-24.158-251.366-230.135-257.101v-1.485c14.677-3.814,25.6-17.058,25.6-32.922
				c0-18.816-15.317-34.133-34.133-34.133c-18.825,0-34.133,15.317-34.133,34.133c0,15.863,10.914,29.107,25.6,32.922v1.485
				C41.481,142.541,19.593,352.171,17.323,393.907C7.253,397.355,0,406.921,0,418.133V435.2c0,4.719,3.814,8.533,8.533,8.533
				h494.933c4.71,0,8.533-3.814,8.533-8.533v-17.067C512,406.921,504.738,397.355,494.669,393.907z M238.933,102.4
				c0-9.412,7.654-17.067,17.067-17.067c9.412,0,17.067,7.654,17.067,17.067c0,9.412-7.654,17.067-17.067,17.067
				C246.588,119.467,238.933,111.812,238.933,102.4z M494.933,426.667H17.067v-8.533c0-4.702,3.823-8.533,8.533-8.533h426.667
				c4.71,0,8.533-3.814,8.533-8.533c0-4.71-3.823-8.533-8.533-8.533H34.458c1.109-19.174,6.033-67.763,27.725-115.959
				C98.893,194.978,164.105,153.6,256,153.6c91.699,0,156.843,41.225,193.604,122.505c27.87,61.611,28.262,124.348,28.262,124.971
				c0,4.71,3.823,8.525,8.533,8.525c4.702,0,8.533,3.831,8.533,8.533V426.667z"/>
			<path d="M380.86,212.855c-3.627-3.004-9.02-2.466-12.006,1.178c-2.987,3.635-2.466,9.011,1.178,12.006
				c20.156,16.555,36.617,38.093,48.922,64.009c1.468,3.072,4.523,4.872,7.714,4.872c1.229,0,2.475-0.265,3.661-0.828
				c4.25-2.022,6.067-7.117,4.045-11.375C420.975,254.524,402.97,231.014,380.86,212.855z"/>
		</g>
	</g>
</g>
</svg>